<svg id="visual" viewBox="0 0 750 600" width="750" height="600" xmlns="http://www.w3.org/2000/svg" xmlns:xlink="http://www.w3.org/1999/xlink" version="1.1"><path d="M568 600L488 600L488 514L523 514L523 429L528 429L528 343L474 343L474 257L451 257L451 171L566 171L566 86L461 86L461 0L750 0L750 86L750 86L750 171L750 171L750 257L750 257L750 343L750 343L750 429L750 429L750 514L750 514L750 600L750 600Z" fill="#897acc"></path><path d="M542 600L555 600L555 514L544 514L544 429L602 429L602 343L620 343L620 257L573 257L573 171L543 171L543 86L558 86L558 0L750 0L750 86L750 86L750 171L750 171L750 257L750 257L750 343L750 343L750 429L750 429L750 514L750 514L750 600L750 600Z" fill="#6d48b0"></path><path d="M631 600L613 600L613 514L623 514L623 429L661 429L661 343L652 343L652 257L632 257L632 171L692 171L692 86L692 86L692 0L750 0L750 86L750 86L750 171L750 171L750 257L750 257L750 343L750 343L750 429L750 429L750 514L750 514L750 600L750 600Z" fill="#560090"></path></svg>