<?xml version="1.0" encoding="UTF-8"?>
<svg xmlns="http://www.w3.org/2000/svg" xmlns:xlink="http://www.w3.org/1999/xlink" width="300px" height="106px" viewBox="0 0 314 111" version="1.1">
<g id="surface1">
<path style="fill:none;stroke-width:4;stroke-linecap:round;stroke-linejoin:round;stroke:rgb(100%,100%,100%);stroke-opacity:1;stroke-miterlimit:4;" d="M 76.46075 1.997257 C 84.859848 5.084274 93.744262 6.662951 102.691297 6.64732 C 108.906472 6.655135 115.105992 5.889243 121.141132 4.388718 " transform="matrix(0.499031,0,0,0.499825,0,0.099377)"/>
<path style="fill:none;stroke-width:4;stroke-linecap:round;stroke-linejoin:round;stroke:rgb(100%,100%,100%);stroke-opacity:1;stroke-miterlimit:4;" d="M 58.997203 6.373787 C 72.280771 14.063976 87.364705 18.104451 102.706952 18.088821 C 115.458238 18.104451 128.05297 15.322228 139.598794 9.929718 " transform="matrix(0.499031,0,0,0.499825,0,0.099377)"/>
<path style="fill:none;stroke-width:4;stroke-linecap:round;stroke-linejoin:round;stroke:rgb(100%,100%,100%);stroke-opacity:1;stroke-miterlimit:4;" d="M 46.40247 11.922602 C 62.918869 23.410994 82.566339 29.553767 102.691297 29.530321 C 120.616677 29.553767 138.213295 24.684877 153.571198 15.439457 " transform="matrix(0.499031,0,0,0.499825,0,0.099377)"/>
<path style="fill:none;stroke-width:4;stroke-linecap:round;stroke-linejoin:round;stroke:rgb(100%,100%,100%);stroke-opacity:1;stroke-miterlimit:4;" d="M 36.187351 18.651517 C 55.318194 33.172219 78.675983 41.026528 102.691297 41.003082 C 125.352422 41.026528 147.46561 34.03971 166.001549 21.003902 " transform="matrix(0.499031,0,0,0.499825,0,0.099377)"/>
<path style="fill:none;stroke-width:4;stroke-linecap:round;stroke-linejoin:round;stroke:rgb(100%,100%,100%);stroke-opacity:1;stroke-miterlimit:4;" d="M 27.686494 26.521456 C 49.079536 43.324206 75.490118 52.436767 102.691297 52.413322 C 126.088224 52.444583 148.992007 45.707852 168.639477 33.000284 " transform="matrix(0.499031,0,0,0.499825,0,0.099377)"/>
<path style="fill:none;stroke-width:4;stroke-linecap:round;stroke-linejoin:round;stroke:rgb(100%,100%,100%);stroke-opacity:1;stroke-miterlimit:4;" d="M 20.719861 35.579311 C 36.132558 47.66166 54.034455 56.172449 73.12616 60.509903 " transform="matrix(0.499031,0,0,0.499825,0,0.099377)"/>
<path style="fill:none;stroke-width:4;stroke-linecap:round;stroke-linejoin:round;stroke:rgb(100%,100%,100%);stroke-opacity:1;stroke-miterlimit:4;" d="M 124.389618 62.057319 C 136.381619 60.095695 148.052686 56.485058 159.0584 51.327004 " transform="matrix(0.499031,0,0,0.499825,0,0.099377)"/>
<path style="fill:none;stroke-width:4;stroke-linecap:round;stroke-linejoin:round;stroke:rgb(100%,100%,100%);stroke-opacity:1;stroke-miterlimit:4;" d="M 141.06257 70.130454 C 144.39716 69.223887 147.661302 68.200091 150.862822 67.059067 " transform="matrix(0.499031,0,0,0.499825,0,0.099377)"/>
<path style="fill:none;stroke-width:4;stroke-linecap:round;stroke-linejoin:round;stroke:rgb(100%,100%,100%);stroke-opacity:1;stroke-miterlimit:4;" d="M 77.00086 72.998644 C 54.621531 68.98943 33.518114 59.736195 15.397041 45.997016 " transform="matrix(0.499031,0,0,0.499825,0,0.099377)"/>
<path style="fill:none;stroke-width:4;stroke-linecap:round;stroke-linejoin:round;stroke:rgb(100%,100%,100%);stroke-opacity:1;stroke-miterlimit:4;" d="M 12.06245 57.712049 C 38.488689 76.617097 70.190781 86.761269 102.691297 86.706562 C 106.472065 86.706562 110.213694 86.573703 113.916186 86.30017 " transform="matrix(0.499031,0,0,0.499825,0,0.099377)"/>
<path style="fill:none;stroke-width:4;stroke-linecap:round;stroke-linejoin:round;stroke:rgb(100%,100%,100%);stroke-opacity:1;stroke-miterlimit:4;" d="M 243.002409 22.223079 C 247.135423 15.87711 250.837914 9.257608 254.070745 2.411464 " transform="matrix(0.499031,0,0,0.499825,0,0.099377)"/>
<path style="fill:none;stroke-width:4;stroke-linecap:round;stroke-linejoin:round;stroke:rgb(100%,100%,100%);stroke-opacity:1;stroke-miterlimit:4;" d="M 10.692607 70.630629 C 37.987717 88.636924 69.987261 98.210584 102.691297 98.163693 C 114.158844 98.163693 125.59508 96.991408 136.827797 94.670284 " transform="matrix(0.499031,0,0,0.499825,0,0.099377)"/>
<path style="fill:none;stroke-width:4;stroke-linecap:round;stroke-linejoin:round;stroke:rgb(100%,100%,100%);stroke-opacity:1;stroke-miterlimit:4;" d="M 266.641994 2.411464 C 258.415106 21.144576 247.033663 38.338088 232.998638 53.226106 " transform="matrix(0.499031,0,0,0.499825,0,0.099377)"/>
<path style="fill:none;stroke-width:4;stroke-linecap:round;stroke-linejoin:round;stroke:rgb(100%,100%,100%);stroke-opacity:1;stroke-miterlimit:4;" d="M 11.350132 84.541743 C 38.974005 100.984992 70.543026 109.644269 102.691297 109.597378 C 119.466009 109.597378 136.162444 107.244993 152.287459 102.602745 " transform="matrix(0.499031,0,0,0.499825,0,0.099377)"/>
<path style="fill:none;stroke-width:4;stroke-linecap:round;stroke-linejoin:round;stroke:rgb(100%,100%,100%);stroke-opacity:1;stroke-miterlimit:4;" d="M 16.211119 100.297251 C 42.989603 113.958278 72.633016 121.054509 102.691297 120.999802 C 123.238949 121.015433 143.653531 117.709589 163.136619 111.199501 " transform="matrix(0.499031,0,0,0.499825,0,0.099377)"/>
<path style="fill:none;stroke-width:4;stroke-linecap:round;stroke-linejoin:round;stroke:rgb(100%,100%,100%);stroke-opacity:1;stroke-miterlimit:4;" d="M 279.05669 2.411464 C 267.471728 30.819834 249.209757 56.008329 225.81283 75.851204 " transform="matrix(0.499031,0,0,0.499825,0,0.099377)"/>
<path style="fill:none;stroke-width:4;stroke-linecap:round;stroke-linejoin:round;stroke:rgb(100%,100%,100%);stroke-opacity:1;stroke-miterlimit:4;" d="M 37.267571 121.617206 C 58.324022 128.82285 80.43721 132.488194 102.691297 132.472564 C 125.861221 132.496009 148.866764 128.518056 170.690328 120.710639 " transform="matrix(0.499031,0,0,0.499825,0,0.099377)"/>
<path style="fill:none;stroke-width:4;stroke-linecap:round;stroke-linejoin:round;stroke:rgb(100%,100%,100%);stroke-opacity:1;stroke-miterlimit:4;" d="M 291.346144 2.411464 C 277.115426 39.721384 252.168619 71.990479 219.636793 95.147013 " transform="matrix(0.499031,0,0,0.499825,0,0.099377)"/>
<path style="fill:none;stroke-width:4;stroke-linecap:round;stroke-linejoin:round;stroke:rgb(100%,100%,100%);stroke-opacity:1;stroke-miterlimit:4;" d="M 303.549492 2.411464 C 287.127026 48.224357 255.565831 87.073878 214.079142 112.52809 " transform="matrix(0.499031,0,0,0.499825,0,0.099377)"/>
<path style="fill:none;stroke-width:4;stroke-linecap:round;stroke-linejoin:round;stroke:rgb(100%,100%,100%);stroke-opacity:1;stroke-miterlimit:4;" d="M 96.178669 143.796836 C 98.339108 143.867173 100.507375 143.906249 102.691297 143.906249 C 127.48155 143.93751 152.091767 139.631317 175.40259 131.190865 " transform="matrix(0.499031,0,0,0.499825,0,0.099377)"/>
<path style="fill:none;stroke-width:4;stroke-linecap:round;stroke-linejoin:round;stroke:rgb(100%,100%,100%);stroke-opacity:1;stroke-miterlimit:4;" d="M 280.888367 67.49672 C 261.475728 92.747737 236.943787 113.606592 208.889392 128.689991 " transform="matrix(0.499031,0,0,0.499825,0,0.099377)"/>
<path style="fill:none;stroke-width:4;stroke-linecap:round;stroke-linejoin:round;stroke:rgb(100%,100%,100%);stroke-opacity:1;stroke-miterlimit:4;" d="M 315.666736 2.411464 C 308.214788 24.512942 297.3578 45.309275 283.487156 64.058018 " transform="matrix(0.499031,0,0,0.499825,0,0.099377)"/>
<path style="fill:none;stroke-width:4;stroke-linecap:round;stroke-linejoin:round;stroke:rgb(100%,100%,100%);stroke-opacity:1;stroke-miterlimit:4;" d="M 113.532629 155.082031 C 135.426642 154.050421 157.054514 149.814565 177.719582 142.499507 " transform="matrix(0.499031,0,0,0.499825,0,0.099377)"/>
<path style="fill:none;stroke-width:4;stroke-linecap:round;stroke-linejoin:round;stroke:rgb(100%,100%,100%);stroke-opacity:1;stroke-miterlimit:4;" d="M 287.181819 78.000393 C 301.36557 60.275446 312.911394 40.59669 321.467045 19.573715 " transform="matrix(0.499031,0,0,0.499825,0,0.099377)"/>
<path style="fill:none;stroke-width:4;stroke-linecap:round;stroke-linejoin:round;stroke:rgb(100%,100%,100%);stroke-opacity:1;stroke-miterlimit:4;" d="M 22.269741 152.729646 C 40.813509 159.435116 60.124388 163.7882 79.748375 165.671671 " transform="matrix(0.499031,0,0,0.499825,0,0.099377)"/>
<path style="fill:none;stroke-width:4;stroke-linecap:round;stroke-linejoin:round;stroke:rgb(100%,100%,100%);stroke-opacity:1;stroke-miterlimit:4;" d="M 274.17222 92.997824 C 254.117711 114.169289 230.3294 131.464399 203.997094 144.000032 " transform="matrix(0.499031,0,0,0.499825,0,0.099377)"/>
<path style="fill:none;stroke-width:4;stroke-linecap:round;stroke-linejoin:round;stroke:rgb(100%,100%,100%);stroke-opacity:1;stroke-miterlimit:4;" d="M 104.70301 166.757989 C 129.712438 166.586054 154.54183 162.420535 178.251864 154.433367 " transform="matrix(0.499031,0,0,0.499825,0,0.099377)"/>
<path style="fill:none;stroke-width:4;stroke-linecap:round;stroke-linejoin:round;stroke:rgb(100%,100%,100%);stroke-opacity:1;stroke-miterlimit:4;" d="M 268.489326 114.489714 C 248.059089 132.949293 224.685645 147.876387 199.339626 158.637962 " transform="matrix(0.499031,0,0,0.499825,0,0.099377)"/>
<path style="fill:none;stroke-width:4;stroke-linecap:round;stroke-linejoin:round;stroke:rgb(100%,100%,100%);stroke-opacity:1;stroke-miterlimit:4;" d="M 290.766895 91.630158 C 305.193304 74.803963 317.302721 56.125557 326.766383 36.087301 " transform="matrix(0.499031,0,0,0.499825,0,0.099377)"/>
<path style="fill:none;stroke-width:4;stroke-linecap:round;stroke-linejoin:round;stroke:rgb(100%,100%,100%);stroke-opacity:1;stroke-miterlimit:4;" d="M 17.197407 163.061384 C 44.578621 173.119588 73.525371 178.24638 102.691297 178.222935 C 127.966866 178.238565 153.101537 174.385656 177.218611 166.797065 " transform="matrix(0.499031,0,0,0.499825,0,0.099377)"/>
<path style="fill:none;stroke-width:4;stroke-linecap:round;stroke-linejoin:round;stroke:rgb(100%,100%,100%);stroke-opacity:1;stroke-miterlimit:4;" d="M 294.281522 104.939499 C 308.934934 88.84012 321.506184 70.951053 331.689992 51.709951 " transform="matrix(0.499031,0,0,0.499825,0,0.099377)"/>
<path style="fill:none;stroke-width:4;stroke-linecap:round;stroke-linejoin:round;stroke:rgb(100%,100%,100%);stroke-opacity:1;stroke-miterlimit:4;" d="M 194.823057 172.783533 C 219.535033 163.358362 242.665819 150.205326 263.401336 133.777707 " transform="matrix(0.499031,0,0,0.499825,0,0.099377)"/>
<path style="fill:none;stroke-width:4;stroke-linecap:round;stroke-linejoin:round;stroke:rgb(100%,100%,100%);stroke-opacity:1;stroke-miterlimit:4;" d="M 12.1329 173.369675 C 41.103133 184.170327 71.771972 189.687881 102.691297 189.65662 C 126.714438 189.680066 150.627991 186.358592 173.743122 179.793796 " transform="matrix(0.499031,0,0,0.499825,0,0.099377)"/>
<path style="fill:none;stroke-width:4;stroke-linecap:round;stroke-linejoin:round;stroke:rgb(100%,100%,100%);stroke-opacity:1;stroke-miterlimit:4;" d="M 336.457047 66.676121 C 325.631369 85.260744 312.629598 102.493332 297.717873 117.998753 " transform="matrix(0.499031,0,0,0.499825,0,0.099377)"/>
<path style="fill:none;stroke-width:4;stroke-linecap:round;stroke-linejoin:round;stroke:rgb(100%,100%,100%);stroke-opacity:1;stroke-miterlimit:4;" d="M 7.068392 183.677967 C 37.627644 195.228881 70.0264 201.137196 102.691297 201.09812 C 123.959095 201.105936 145.156445 198.612876 165.852823 193.673649 " transform="matrix(0.499031,0,0,0.499825,0,0.099377)"/>
<path style="fill:none;stroke-width:4;stroke-linecap:round;stroke-linejoin:round;stroke:rgb(100%,100%,100%);stroke-opacity:1;stroke-miterlimit:4;" d="M 190.423902 186.538342 C 222.102511 175.667354 251.479784 158.989648 277.060633 137.357084 " transform="matrix(0.499031,0,0,0.499825,0,0.099377)"/>
<path style="fill:none;stroke-width:4;stroke-linecap:round;stroke-linejoin:round;stroke:rgb(100%,100%,100%);stroke-opacity:1;stroke-miterlimit:4;" d="M 186.11868 199.996172 C 226.423389 187.499616 263.393508 166.101509 294.312833 137.38053 " transform="matrix(0.499031,0,0,0.499825,0,0.099377)"/>
<path style="fill:none;stroke-width:4;stroke-linecap:round;stroke-linejoin:round;stroke:rgb(100%,100%,100%);stroke-opacity:1;stroke-miterlimit:4;" d="M 2.003885 194.001889 C 34.144328 206.287435 68.273 212.570882 102.691297 212.539621 C 117.923956 212.539621 133.140961 211.312629 148.177928 208.866461 " transform="matrix(0.499031,0,0,0.499825,0,0.099377)"/>
<path style="fill:none;stroke-width:4;stroke-linecap:round;stroke-linejoin:round;stroke:rgb(100%,100%,100%);stroke-opacity:1;stroke-miterlimit:4;" d="M 341.059721 81.142116 C 329.662623 99.156227 316.26164 115.833934 301.122912 130.846995 " transform="matrix(0.499031,0,0,0.499825,0,0.099377)"/>
<path style="fill:none;stroke-width:4;stroke-linecap:round;stroke-linejoin:round;stroke:rgb(100%,100%,100%);stroke-opacity:1;stroke-miterlimit:4;" d="M 261.726213 177.152248 C 294.868598 155.699435 323.369171 127.814685 345.537152 95.147013 " transform="matrix(0.499031,0,0,0.499825,0,0.099377)"/>
<path style="fill:none;stroke-width:4;stroke-linecap:round;stroke-linejoin:round;stroke:rgb(100%,100%,100%);stroke-opacity:1;stroke-miterlimit:4;" d="M 181.907389 213.141394 C 205.758322 206.45937 228.662105 196.768481 250.062974 184.303186 " transform="matrix(0.499031,0,0,0.499825,0,0.099377)"/>
<path style="fill:none;stroke-width:4;stroke-linecap:round;stroke-linejoin:round;stroke:rgb(100%,100%,100%);stroke-opacity:1;stroke-miterlimit:4;" d="M 199.566629 219.682743 C 215.582056 214.321494 231.112168 207.631655 246.008237 199.683563 " transform="matrix(0.499031,0,0,0.499825,0,0.099377)"/>
<path style="fill:none;stroke-width:4;stroke-linecap:round;stroke-linejoin:round;stroke:rgb(100%,100%,100%);stroke-opacity:1;stroke-miterlimit:4;" d="M 349.889341 108.886192 C 330.962018 135.082851 308.011268 158.122157 281.89031 177.152248 " transform="matrix(0.499031,0,0,0.499825,0,0.099377)"/>
<path style="fill:none;stroke-width:4;stroke-linecap:round;stroke-linejoin:round;stroke:rgb(100%,100%,100%);stroke-opacity:1;stroke-miterlimit:4;" d="M 242.078744 214.516875 C 238.446701 216.306563 234.783348 218.025914 231.080857 219.682743 " transform="matrix(0.499031,0,0,0.499825,0,0.099377)"/>
<path style="fill:none;stroke-width:4;stroke-linecap:round;stroke-linejoin:round;stroke:rgb(100%,100%,100%);stroke-opacity:1;stroke-miterlimit:4;" d="M 410.686909 2.411464 C 408.589092 11.469319 406.099891 20.378684 403.211478 29.139559 " transform="matrix(0.499031,0,0,0.499825,0,0.099377)"/>
<path style="fill:none;stroke-width:4;stroke-linecap:round;stroke-linejoin:round;stroke:rgb(100%,100%,100%);stroke-opacity:1;stroke-miterlimit:4;" d="M 354.17108 122.312761 C 338.625313 142.671442 320.67645 161.091945 300.723701 177.152248 " transform="matrix(0.499031,0,0,0.499825,0,0.099377)"/>
<path style="fill:none;stroke-width:4;stroke-linecap:round;stroke-linejoin:round;stroke:rgb(100%,100%,100%);stroke-opacity:1;stroke-miterlimit:4;" d="M 422.41277 2.411464 C 417.904028 22.59821 411.469677 42.316041 403.211478 61.283611 " transform="matrix(0.499031,0,0,0.499825,0,0.099377)"/>
<path style="fill:none;stroke-width:4;stroke-linecap:round;stroke-linejoin:round;stroke:rgb(100%,100%,100%);stroke-opacity:1;stroke-miterlimit:4;" d="M 358.366715 135.497059 C 345.161424 151.963753 330.398425 167.125305 314.289065 180.770701 " transform="matrix(0.499031,0,0,0.499825,0,0.099377)"/>
<path style="fill:none;stroke-width:4;stroke-linecap:round;stroke-linejoin:round;stroke:rgb(100%,100%,100%);stroke-opacity:1;stroke-miterlimit:4;" d="M 362.499729 148.501605 C 348.910881 164.686952 333.842603 179.582785 317.498413 192.978094 " transform="matrix(0.499031,0,0,0.499825,0,0.099377)"/>
<path style="fill:none;stroke-width:4;stroke-linecap:round;stroke-linejoin:round;stroke:rgb(100%,100%,100%);stroke-opacity:1;stroke-miterlimit:4;" d="M 434.122975 2.411464 C 427.719935 32.124978 417.316952 60.838142 403.211478 87.761618 " transform="matrix(0.499031,0,0,0.499825,0,0.099377)"/>
<path style="fill:none;stroke-width:4;stroke-linecap:round;stroke-linejoin:round;stroke:rgb(100%,100%,100%);stroke-opacity:1;stroke-miterlimit:4;" d="M 445.817524 2.411464 C 437.833294 40.784256 423.430368 77.531479 403.211478 111.113533 " transform="matrix(0.499031,0,0,0.499825,0,0.099377)"/>
<path style="fill:none;stroke-width:4;stroke-linecap:round;stroke-linejoin:round;stroke:rgb(100%,100%,100%);stroke-opacity:1;stroke-miterlimit:4;" d="M 366.577949 161.318587 C 352.636856 177.261661 337.294608 191.907407 320.723416 205.091704 " transform="matrix(0.499031,0,0,0.499825,0,0.099377)"/>
<path style="fill:none;stroke-width:4;stroke-linecap:round;stroke-linejoin:round;stroke:rgb(100%,100%,100%);stroke-opacity:1;stroke-miterlimit:4;" d="M 457.496419 2.411464 C 448.142344 48.896467 429.692509 93.075977 403.211478 132.410042 " transform="matrix(0.499031,0,0,0.499825,0,0.099377)"/>
<path style="fill:none;stroke-width:4;stroke-linecap:round;stroke-linejoin:round;stroke:rgb(100%,100%,100%);stroke-opacity:1;stroke-miterlimit:4;" d="M 370.61703 174.002709 C 356.331519 189.711327 340.699648 204.146061 323.901453 217.127162 " transform="matrix(0.499031,0,0,0.499825,0,0.099377)"/>
<path style="fill:none;stroke-width:4;stroke-linecap:round;stroke-linejoin:round;stroke:rgb(100%,100%,100%);stroke-opacity:1;stroke-miterlimit:4;" d="M 374.601318 186.507081 C 363.486016 198.323713 351.619258 209.405712 339.071491 219.682743 " transform="matrix(0.499031,0,0,0.499825,0,0.099377)"/>
<path style="fill:none;stroke-width:4;stroke-linecap:round;stroke-linejoin:round;stroke:rgb(100%,100%,100%);stroke-opacity:1;stroke-miterlimit:4;" d="M 468.932655 3.568119 C 458.263531 57.368179 435.821581 108.143745 403.211478 152.237287 " transform="matrix(0.499031,0,0,0.499825,0,0.099377)"/>
<path style="fill:none;stroke-width:4;stroke-linecap:round;stroke-linejoin:round;stroke:rgb(100%,100%,100%);stroke-opacity:1;stroke-miterlimit:4;" d="M 476.838609 20.847598 C 463.648973 75.71053 438.506474 126.978455 403.211478 171.00166 " transform="matrix(0.499031,0,0,0.499825,0,0.099377)"/>
<path style="fill:none;stroke-width:4;stroke-linecap:round;stroke-linejoin:round;stroke:rgb(100%,100%,100%);stroke-opacity:1;stroke-miterlimit:4;" d="M 356.730731 219.682743 C 364.268784 213.055426 371.540696 206.13113 378.546467 198.91767 " transform="matrix(0.499031,0,0,0.499825,0,0.099377)"/>
<path style="fill:none;stroke-width:4;stroke-linecap:round;stroke-linejoin:round;stroke:rgb(100%,100%,100%);stroke-opacity:1;stroke-miterlimit:4;" d="M 382.483789 211.250107 C 379.611031 214.110482 376.691307 216.908336 373.732446 219.682743 " transform="matrix(0.499031,0,0,0.499825,0,0.099377)"/>
<path style="fill:none;stroke-width:4;stroke-linecap:round;stroke-linejoin:round;stroke:rgb(100%,100%,100%);stroke-opacity:1;stroke-miterlimit:4;" d="M 403.211478 188.921988 C 441.066124 144.961305 468.783929 93.208835 484.400145 37.337738 " transform="matrix(0.499031,0,0,0.499825,0,0.099377)"/>
<path style="fill:none;stroke-width:4;stroke-linecap:round;stroke-linejoin:round;stroke:rgb(100%,100%,100%);stroke-opacity:1;stroke-miterlimit:4;" d="M 491.640746 53.147954 C 485.049842 74.084961 476.76816 94.451457 466.881804 114.052061 " transform="matrix(0.499031,0,0,0.499825,0,0.099377)"/>
<path style="fill:none;stroke-width:4;stroke-linecap:round;stroke-linejoin:round;stroke:rgb(100%,100%,100%);stroke-opacity:1;stroke-miterlimit:4;" d="M 403.211478 206.13113 C 426.592749 180.637842 446.647258 152.284178 462.889688 121.742249 " transform="matrix(0.499031,0,0,0.499825,0,0.099377)"/>
<path style="fill:none;stroke-width:4;stroke-linecap:round;stroke-linejoin:round;stroke:rgb(100%,100%,100%);stroke-opacity:1;stroke-miterlimit:4;" d="M 498.630862 68.403287 C 491.570297 88.676001 482.96768 108.370387 472.877804 127.322325 " transform="matrix(0.499031,0,0,0.499825,0,0.099377)"/>
<path style="fill:none;stroke-width:4;stroke-linecap:round;stroke-linejoin:round;stroke:rgb(100%,100%,100%);stroke-opacity:1;stroke-miterlimit:4;" d="M 406.232961 219.682743 C 427.83735 196.971678 446.84295 171.923857 462.889688 145.000381 " transform="matrix(0.499031,0,0,0.499825,0,0.099377)"/>
<path style="fill:none;stroke-width:4;stroke-linecap:round;stroke-linejoin:round;stroke:rgb(100%,100%,100%);stroke-opacity:1;stroke-miterlimit:4;" d="M 505.409631 83.220968 C 497.949854 102.899724 489.057613 122.000152 478.787701 140.373764 " transform="matrix(0.499031,0,0,0.499825,0,0.099377)"/>
<path style="fill:none;stroke-width:4;stroke-linecap:round;stroke-linejoin:round;stroke:rgb(100%,100%,100%);stroke-opacity:1;stroke-miterlimit:4;" d="M 421.833522 219.682743 C 436.870489 203.075374 450.600235 185.326981 462.889688 166.593869 " transform="matrix(0.499031,0,0,0.499825,0,0.099377)"/>
<path style="fill:none;stroke-width:4;stroke-linecap:round;stroke-linejoin:round;stroke:rgb(100%,100%,100%);stroke-opacity:1;stroke-miterlimit:4;" d="M 512.000535 97.647888 C 504.188513 116.803022 495.030131 135.37983 484.588009 153.237636 " transform="matrix(0.499031,0,0,0.499825,0,0.099377)"/>
<path style="fill:none;stroke-width:4;stroke-linecap:round;stroke-linejoin:round;stroke:rgb(100%,100%,100%);stroke-opacity:1;stroke-miterlimit:4;" d="M 437.113147 219.682743 C 446.193253 209.16344 454.788042 198.237745 462.889688 186.890028 " transform="matrix(0.499031,0,0,0.499825,0,0.099377)"/>
<path style="fill:none;stroke-width:4;stroke-linecap:round;stroke-linejoin:round;stroke:rgb(100%,100%,100%);stroke-opacity:1;stroke-miterlimit:4;" d="M 540.000136 50.920612 C 528.892662 91.403517 512.188399 130.135809 490.372663 165.999911 " transform="matrix(0.499031,0,0,0.499825,0,0.099377)"/>
<path style="fill:none;stroke-width:4;stroke-linecap:round;stroke-linejoin:round;stroke:rgb(100%,100%,100%);stroke-opacity:1;stroke-miterlimit:4;" d="M 452.087494 219.682743 C 455.782157 215.228061 459.367234 210.679595 462.889688 206.092054 " transform="matrix(0.499031,0,0,0.499825,0,0.099377)"/>
<path style="fill:none;stroke-width:4;stroke-linecap:round;stroke-linejoin:round;stroke:rgb(100%,100%,100%);stroke-opacity:1;stroke-miterlimit:4;" d="M 496.000763 178.488653 C 529.67543 125.227843 552.093897 65.64451 561.886321 3.396183 " transform="matrix(0.499031,0,0,0.499825,0,0.099377)"/>
<path style="fill:none;stroke-width:4;stroke-linecap:round;stroke-linejoin:round;stroke:rgb(100%,100%,100%);stroke-opacity:1;stroke-miterlimit:4;" d="M 573.627837 2.411464 C 563.772791 67.621764 540.399347 130.057657 505.002591 185.709927 " transform="matrix(0.499031,0,0,0.499825,0,0.099377)"/>
<path style="fill:none;stroke-width:4;stroke-linecap:round;stroke-linejoin:round;stroke:rgb(100%,100%,100%);stroke-opacity:1;stroke-miterlimit:4;" d="M 518.497507 185.709927 C 552.915803 129.760678 575.608239 67.395122 585.181488 2.411464 " transform="matrix(0.499031,0,0,0.499825,0,0.099377)"/>
<path style="fill:none;stroke-width:4;stroke-linecap:round;stroke-linejoin:round;stroke:rgb(100%,100%,100%);stroke-opacity:1;stroke-miterlimit:4;" d="M 596.719484 2.411464 C 591.287077 40.25282 581.50248 77.343913 567.553559 112.942298 " transform="matrix(0.499031,0,0,0.499825,0,0.099377)"/>
<path style="fill:none;stroke-width:4;stroke-linecap:round;stroke-linejoin:round;stroke:rgb(100%,100%,100%);stroke-opacity:1;stroke-miterlimit:4;" d="M 567.553559 142.233789 C 587.780277 97.827638 601.502195 50.733047 608.273136 2.411464 " transform="matrix(0.499031,0,0,0.499825,0,0.099377)"/>
<path style="fill:none;stroke-width:4;stroke-linecap:round;stroke-linejoin:round;stroke:rgb(100%,100%,100%);stroke-opacity:1;stroke-miterlimit:4;" d="M 619.81896 2.411464 C 611.889523 60.330152 594.214628 116.490413 567.553559 168.516416 " transform="matrix(0.499031,0,0,0.499825,0,0.099377)"/>
<path style="fill:none;stroke-width:4;stroke-linecap:round;stroke-linejoin:round;stroke:rgb(100%,100%,100%);stroke-opacity:1;stroke-miterlimit:4;" d="M 567.553559 192.579517 C 596.382894 141.546049 616.546991 86.073528 627.216115 28.436188 " transform="matrix(0.499031,0,0,0.499825,0,0.099377)"/>
<path style="fill:none;stroke-width:4;stroke-linecap:round;stroke-linejoin:round;stroke:rgb(100%,100%,100%);stroke-opacity:1;stroke-miterlimit:4;" d="M 627.216115 78.883514 C 613.689889 126.829966 593.611897 172.681935 567.553559 215.149908 " transform="matrix(0.499031,0,0,0.499825,0,0.099377)"/>
<path style="fill:none;stroke-width:4;stroke-linecap:round;stroke-linejoin:round;stroke:rgb(100%,100%,100%);stroke-opacity:1;stroke-miterlimit:4;" d="M 578.1992 219.682743 C 598.042362 187.077593 614.464829 152.518635 627.200459 116.537305 " transform="matrix(0.499031,0,0,0.499825,0,0.099377)"/>
<path style="fill:none;stroke-width:4;stroke-linecap:round;stroke-linejoin:round;stroke:rgb(100%,100%,100%);stroke-opacity:1;stroke-miterlimit:4;" d="M 627.216115 148.423453 C 617.000996 172.978914 605.071616 196.791927 591.506251 219.682743 " transform="matrix(0.499031,0,0,0.499825,0,0.099377)"/>
<path style="fill:none;stroke-width:4;stroke-linecap:round;stroke-linejoin:round;stroke:rgb(100%,100%,100%);stroke-opacity:1;stroke-miterlimit:4;" d="M 604.797647 219.682743 C 612.852327 205.724738 620.327759 191.415047 627.216115 176.753671 " transform="matrix(0.499031,0,0,0.499825,0,0.099377)"/>
<path style="fill:none;stroke-width:4;stroke-linecap:round;stroke-linejoin:round;stroke:rgb(100%,100%,100%);stroke-opacity:1;stroke-miterlimit:4;" d="M 627.216115 202.551754 C 624.218114 208.31158 621.13401 214.0167 617.9638 219.682743 " transform="matrix(0.499031,0,0,0.499825,0,0.099377)"/>
</g>
</svg>
